<svg width="287" height="255" xmlns="http://www.w3.org/2000/svg">
 <title>templates_mo</title>

 <g>
  <title>background</title>
  <rect fill="none" id="canvas_background" height="402" width="582" y="-1" x="-1"/>
 </g>
 <g>
  <title>Layer 1</title>
  <path id="svg_2" fill="#204489" d="m0.672,184.782l159.008,69.895l126.648,-72.46l-159.008,-69.894l-126.648,72.46l0,-0.001zm6.61,-0.267l152.23,66.808l120.304,-68.78l-152.332,-66.867l-120.2,68.84l-0.002,-0.001z"/>
  <path id="svg_3" fill="#18BFD6" d="m0.672,128.782l159.008,69.895l126.648,-72.46l-159.008,-69.893l-126.648,72.459l0,-0.001zm6.61,-0.267l152.23,66.808l120.304,-68.78l-152.332,-66.867l-120.2,68.84l-0.002,-0.001z"/>
  <path id="svg_4" fill="#FFF" d="m0.672,72.782l159.008,69.895l126.648,-72.46l-159.008,-69.893l-126.648,72.459l0,-0.001zm6.61,-0.267l152.23,66.808l120.304,-68.78l-152.332,-66.867l-120.2,68.84l-0.002,-0.001z"/>
 </g>
</svg>