<svg width="100" height="101" xmlns="http://www.w3.org/2000/svg">
 <!-- Created with Method Draw - http://github.com/duopixel/Method-Draw/ -->
 <g>
  <title>background</title>
  <rect fill="none" id="canvas_background" height="103" width="102" y="-1" x="-1"/>
  <g display="none" overflow="visible" y="0" x="0" height="100%" width="100%" id="canvasGrid">
   <rect fill="url(#gridpattern)" stroke-width="0" y="0" x="0" height="100%" width="100%"/>
  </g>
 </g>
 <g>
  <title>Layer 1</title>
  <g stroke="null" id="svg_13">
   <path stroke="#000" id="svg_7" d="m0.088242,11.964142l18.716909,76.502922l62.389702,0l18.716903,-76.502922l-99.823514,0z" stroke-opacity="null" stroke-width="0" fill="#444444"/>
   <path stroke="#000" id="svg_12" d="m9.757755,20.496069l15.090842,67.970999l50.30281,0l15.090837,-67.970999l-80.484488,0z" stroke-width="0" fill="#B9FFCE"/>
   <path stroke="#000" id="svg_10" d="m9.331159,29.881185l15.250815,58.301482l50.836055,0l15.25081,-58.301482l-81.33768,0z" stroke-opacity="null" stroke-width="0" fill="#FFFF91"/>
   <path stroke="#000" id="svg_9" d="m8.904564,38.697507l15.410788,50.053956l51.369298,0l15.410783,-50.053956l-82.19087,0z" stroke-opacity="null" stroke-width="0" fill="#CBFFFF"/>
   <path stroke="#000" id="svg_8" d="m9.899957,47.229432l15.037516,41.237632l50.125056,0l15.037511,-41.237632l-80.200083,0z" stroke-opacity="null" stroke-width="0" fill="#FFDCEC"/>
   <path stroke="#000" id="svg_6" d="m0.088242,55.476958l18.71691,33.558901l62.389702,0l18.716903,-33.558901l-99.823514,0z" stroke-opacity="null" stroke-width="0" fill="#444444"/>
  </g>
 </g>
</svg>